<mxfile host="Electron" agent="Mozilla/5.0 (X11; Linux x86_64) AppleWebKit/537.36 (KHTML, like Gecko) draw.io/26.2.15 Chrome/134.0.6998.205 Electron/35.4.0 Safari/537.36" version="26.2.15">
  <diagram id="C5RBs43oDa-KdzZeNtuy" name="Page-1">
    <mxGraphModel dx="1384" dy="741" grid="1" gridSize="10" guides="1" tooltips="1" connect="1" arrows="1" fold="1" page="1" pageScale="1" pageWidth="827" pageHeight="1169" math="0" shadow="0">
      <root>
        <mxCell id="WIyWlLk6GJQsqaUBKTNV-0" />
        <mxCell id="WIyWlLk6GJQsqaUBKTNV-1" parent="WIyWlLk6GJQsqaUBKTNV-0" />
        <mxCell id="Z2Q16Kun2Og9q_ITZoFF-4" style="edgeStyle=orthogonalEdgeStyle;rounded=0;orthogonalLoop=1;jettySize=auto;html=1;" edge="1" parent="WIyWlLk6GJQsqaUBKTNV-1" source="WIyWlLk6GJQsqaUBKTNV-3" target="Z2Q16Kun2Og9q_ITZoFF-3">
          <mxGeometry relative="1" as="geometry" />
        </mxCell>
        <mxCell id="WIyWlLk6GJQsqaUBKTNV-3" value="Начало" style="rounded=1;whiteSpace=wrap;html=1;fontSize=12;glass=0;strokeWidth=1;shadow=0;arcSize=50;" parent="WIyWlLk6GJQsqaUBKTNV-1" vertex="1">
          <mxGeometry x="160" y="80" width="120" height="40" as="geometry" />
        </mxCell>
        <mxCell id="Z2Q16Kun2Og9q_ITZoFF-6" style="edgeStyle=orthogonalEdgeStyle;rounded=0;orthogonalLoop=1;jettySize=auto;html=1;" edge="1" parent="WIyWlLk6GJQsqaUBKTNV-1" source="Z2Q16Kun2Og9q_ITZoFF-3" target="Z2Q16Kun2Og9q_ITZoFF-5">
          <mxGeometry relative="1" as="geometry" />
        </mxCell>
        <mxCell id="Z2Q16Kun2Og9q_ITZoFF-3" value="Получение периферии" style="rounded=0;whiteSpace=wrap;html=1;" vertex="1" parent="WIyWlLk6GJQsqaUBKTNV-1">
          <mxGeometry x="160" y="160" width="120" height="40" as="geometry" />
        </mxCell>
        <mxCell id="Z2Q16Kun2Og9q_ITZoFF-8" style="edgeStyle=orthogonalEdgeStyle;rounded=0;orthogonalLoop=1;jettySize=auto;html=1;" edge="1" parent="WIyWlLk6GJQsqaUBKTNV-1" source="Z2Q16Kun2Og9q_ITZoFF-5" target="Z2Q16Kun2Og9q_ITZoFF-7">
          <mxGeometry relative="1" as="geometry" />
        </mxCell>
        <mxCell id="Z2Q16Kun2Og9q_ITZoFF-5" value="Настройки частот" style="rounded=0;whiteSpace=wrap;html=1;" vertex="1" parent="WIyWlLk6GJQsqaUBKTNV-1">
          <mxGeometry x="160" y="240" width="120" height="40" as="geometry" />
        </mxCell>
        <mxCell id="Z2Q16Kun2Og9q_ITZoFF-16" style="edgeStyle=orthogonalEdgeStyle;rounded=0;orthogonalLoop=1;jettySize=auto;html=1;entryX=0.5;entryY=0;entryDx=0;entryDy=0;exitX=0.5;exitY=1;exitDx=0;exitDy=0;" edge="1" parent="WIyWlLk6GJQsqaUBKTNV-1" source="Z2Q16Kun2Og9q_ITZoFF-7" target="Z2Q16Kun2Og9q_ITZoFF-9">
          <mxGeometry relative="1" as="geometry">
            <mxPoint x="280" y="380" as="sourcePoint" />
            <Array as="points">
              <mxPoint x="220" y="380" />
              <mxPoint x="311" y="380" />
              <mxPoint x="311" y="50" />
              <mxPoint x="390" y="50" />
            </Array>
          </mxGeometry>
        </mxCell>
        <mxCell id="Z2Q16Kun2Og9q_ITZoFF-7" value="Инициализация выводов" style="rounded=0;whiteSpace=wrap;html=1;" vertex="1" parent="WIyWlLk6GJQsqaUBKTNV-1">
          <mxGeometry x="160" y="320" width="120" height="40" as="geometry" />
        </mxCell>
        <mxCell id="Z2Q16Kun2Og9q_ITZoFF-15" style="edgeStyle=orthogonalEdgeStyle;rounded=0;orthogonalLoop=1;jettySize=auto;html=1;" edge="1" parent="WIyWlLk6GJQsqaUBKTNV-1" source="Z2Q16Kun2Og9q_ITZoFF-9" target="Z2Q16Kun2Og9q_ITZoFF-12">
          <mxGeometry relative="1" as="geometry" />
        </mxCell>
        <mxCell id="Z2Q16Kun2Og9q_ITZoFF-9" value="loop" style="shape=loopLimit;whiteSpace=wrap;html=1;" vertex="1" parent="WIyWlLk6GJQsqaUBKTNV-1">
          <mxGeometry x="340" y="70" width="100" height="50" as="geometry" />
        </mxCell>
        <mxCell id="Z2Q16Kun2Og9q_ITZoFF-10" value="loop" style="shape=loopLimit;whiteSpace=wrap;html=1;flipV=1;" vertex="1" parent="WIyWlLk6GJQsqaUBKTNV-1">
          <mxGeometry x="340" y="320" width="100" height="50" as="geometry" />
        </mxCell>
        <mxCell id="Z2Q16Kun2Og9q_ITZoFF-11" style="edgeStyle=orthogonalEdgeStyle;rounded=0;orthogonalLoop=1;jettySize=auto;html=1;" edge="1" parent="WIyWlLk6GJQsqaUBKTNV-1" source="Z2Q16Kun2Og9q_ITZoFF-12" target="Z2Q16Kun2Og9q_ITZoFF-13">
          <mxGeometry relative="1" as="geometry" />
        </mxCell>
        <mxCell id="Z2Q16Kun2Og9q_ITZoFF-12" value="Считывание состояния кнопки" style="rounded=0;whiteSpace=wrap;html=1;" vertex="1" parent="WIyWlLk6GJQsqaUBKTNV-1">
          <mxGeometry x="330" y="160" width="120" height="40" as="geometry" />
        </mxCell>
        <mxCell id="Z2Q16Kun2Og9q_ITZoFF-14" style="edgeStyle=orthogonalEdgeStyle;rounded=0;orthogonalLoop=1;jettySize=auto;html=1;" edge="1" parent="WIyWlLk6GJQsqaUBKTNV-1" source="Z2Q16Kun2Og9q_ITZoFF-13" target="Z2Q16Kun2Og9q_ITZoFF-10">
          <mxGeometry relative="1" as="geometry" />
        </mxCell>
        <mxCell id="Z2Q16Kun2Og9q_ITZoFF-13" value="Запись состояния светодиода" style="rounded=0;whiteSpace=wrap;html=1;" vertex="1" parent="WIyWlLk6GJQsqaUBKTNV-1">
          <mxGeometry x="330" y="240" width="120" height="40" as="geometry" />
        </mxCell>
      </root>
    </mxGraphModel>
  </diagram>
</mxfile>
